<?xml version="1.0" encoding="UTF-8" standalone="no" ?>
<!DOCTYPE svg PUBLIC "-//W3C//DTD SVG 1.1//EN" "http://www.w3.org/Graphics/SVG/1.1/DTD/svg11.dtd">
<svg xmlns="http://www.w3.org/2000/svg" xmlns:xlink="http://www.w3.org/1999/xlink" version="1.1" width="1080" height="1080" viewBox="0 0 1080 1080" xml:space="preserve">
<desc>Created with Fabric.js 5.2.4</desc>
<defs>
</defs>
<g transform="matrix(1 0 0 1 540 540)" id="77247878-0ded-41cd-b79e-286f9f7db33a"  >
<rect style="stroke: none; stroke-width: 1; stroke-dasharray: none; stroke-linecap: butt; stroke-dashoffset: 0; stroke-linejoin: miter; stroke-miterlimit: 4; fill: rgb(255,255,255); fill-rule: nonzero; opacity: 1; visibility: hidden;" vector-effect="non-scaling-stroke"  x="-540" y="-540" rx="0" ry="0" width="1080" height="1080" />
</g>
<g transform="matrix(1 0 0 1 540 540)" id="49f403cf-ef3f-4e53-893b-218b107fdffb"  >
</g>
<g transform="matrix(1.85 0 0 1.85 540 498.73)"  >
<g style="" vector-effect="non-scaling-stroke"   >
		<g transform="matrix(0.13 0 0 -0.13 -129.33 -0.12)"  >
<path style="stroke: none; stroke-width: 1; stroke-dasharray: none; stroke-linecap: butt; stroke-dashoffset: 0; stroke-linejoin: miter; stroke-miterlimit: 4; fill: rgb(242,47,70); fill-rule: nonzero; opacity: 1;" vector-effect="non-scaling-stroke"  transform=" translate(-1555.76, -2412.26)" d="M 1466 3499 C 1120 3454 854 3261 730 2963 C 656 2785 624 2578 633 2330 C 643 2070 681 1904 773 1725 C 816 1643 841 1609 915 1534 C 993 1455 1019 1436 1100 1397 C 1247 1327 1306 1315 1505 1316 C 1693 1316 1742 1327 1841 1391 C 1903 1430 1996 1530 2023 1587 C 2036 1614 2050 1630 2060 1628 C 2072 1625 2075 1601 2078 1482 L 2081 1340 L 2280 1340 L 2480 1340 L 2480 1930 L 2480 2520 L 2015 2520 L 1550 2520 L 1550 2350 L 1550 2180 L 1806 2180 L 2062 2180 L 2058 2063 C 2053 1935 2039 1887 1987 1813 C 1908 1701 1748 1650 1538 1670 C 1451 1678 1423 1685 1360 1717 C 1215 1788 1132 1908 1089 2110 C 1057 2259 1056 2549 1088 2694 C 1138 2927 1246 3056 1450 3126 C 1533 3155 1739 3153 1835 3123 C 1960 3083 2039 3021 2101 2913 C 2114 2889 2131 2870 2139 2870 C 2150 2870 2443 3040 2460 3057 C 2462 3059 2449 3091 2430 3128 C 2408 3172 2369 3222 2316 3276 C 2248 3344 2219 3365 2140 3403 C 2088 3428 2011 3458 1970 3469 C 1830 3507 1626 3519 1466 3499 z" stroke-linecap="round" />
</g>
		<g transform="matrix(0.13 0 0 -0.13 143.77 0)"  >
<path style="stroke: none; stroke-width: 1; stroke-dasharray: none; stroke-linecap: butt; stroke-dashoffset: 0; stroke-linejoin: miter; stroke-miterlimit: 4; fill: rgb(242,47,70); fill-rule: nonzero; opacity: 1;" vector-effect="non-scaling-stroke"  transform=" translate(-3603.99, -2411.32)" d="M 3435 3496 C 3153 3451 2973 3325 2888 3110 C 2841 2993 2842 2805 2890 2678 C 2968 2470 3126 2359 3460 2280 C 3791 2201 3865 2176 3923 2121 C 3973 2076 3991 2027 3991 1944 C 3991 1853 3968 1797 3908 1745 C 3842 1689 3785 1675 3635 1676 C 3523 1676 3494 1680 3425 1703 C 3293 1746 3169 1831 3094 1930 C 3053 1984 3022 1994 2999 1961 C 2991 1950 2941 1887 2886 1821 L 2788 1700 L 2806 1673 C 2923 1493 3173 1357 3457 1319 C 3566 1305 3811 1313 3905 1334 C 4152 1390 4320 1529 4387 1734 C 4422 1844 4431 2027 4405 2133 C 4369 2281 4291 2395 4172 2471 C 4068 2537 3960 2575 3735 2621 C 3447 2681 3388 2701 3322 2763 C 3262 2820 3245 2934 3285 3011 C 3331 3099 3424 3140 3590 3147 C 3779 3155 3926 3110 4051 3006 C 4082 2981 4113 2960 4121 2960 C 4129 2961 4181 3024 4238 3102 L 4340 3244 L 4303 3283 C 4133 3458 3769 3548 3435 3496 z" stroke-linecap="round" />
</g>
</g>
</g>
<g transform="matrix(NaN NaN NaN NaN 0 0)"  >
<g style=""   >
</g>
</g>
<g transform="matrix(NaN NaN NaN NaN 0 0)"  >
<g style=""   >
</g>
</g>
</svg>